<?xml version="1.0" encoding="UTF-8" standalone="no"?>
<!DOCTYPE svg PUBLIC "-//W3C//DTD SVG 1.1//EN"
 "http://www.w3.org/Graphics/SVG/1.1/DTD/svg11.dtd">
<!-- Generated by graphviz version 14.0.2 (20251019.1705)
 -->
<!-- Title: OrinControllerBootFSM Pages: 1 -->
<svg width="1989pt" height="538pt"
 viewBox="0.00 0.00 1989.00 538.00" xmlns="http://www.w3.org/2000/svg" xmlns:xlink="http://www.w3.org/1999/xlink">
<g id="graph0" class="graph" transform="scale(1 1) rotate(0) translate(4 534.25)">
<title>OrinControllerBootFSM</title>
<polygon fill="white" stroke="none" points="-4,4 -4,-534.25 1985.33,-534.25 1985.33,4 -4,4"/>
<text xml:space="preserve" text-anchor="middle" x="990.66" y="-514.85" font-family="Times,serif" font-size="12.00">Orin Controller Boot &amp; Strap State Machine</text>
<g id="clust1" class="cluster">
<title>cluster_normal</title>
<path fill="none" stroke="#bcd7ff" stroke-dasharray="5,2" d="M536.22,-363C536.22,-363 1396.6,-363 1396.6,-363 1402.6,-363 1408.6,-369 1408.6,-375 1408.6,-375 1408.6,-425 1408.6,-425 1408.6,-431 1402.6,-437 1396.6,-437 1396.6,-437 536.22,-437 536.22,-437 530.22,-437 524.22,-431 524.22,-425 524.22,-425 524.22,-375 524.22,-375 524.22,-369 530.22,-363 536.22,-363"/>
<text xml:space="preserve" text-anchor="middle" x="966.41" y="-421.6" font-family="Times,serif" font-size="12.00">Normal Reboot Sequence</text>
</g>
<g id="clust2" class="cluster">
<title>cluster_recovery</title>
<path fill="none" stroke="#ffd8b1" stroke-dasharray="5,2" d="M536.22,-8C536.22,-8 1961.33,-8 1961.33,-8 1967.33,-8 1973.33,-14 1973.33,-20 1973.33,-20 1973.33,-109 1973.33,-109 1973.33,-115 1967.33,-121 1961.33,-121 1961.33,-121 536.22,-121 536.22,-121 530.22,-121 524.22,-115 524.22,-109 524.22,-109 524.22,-20 524.22,-20 524.22,-14 530.22,-8 536.22,-8"/>
<text xml:space="preserve" text-anchor="middle" x="1248.78" y="-105.6" font-family="Times,serif" font-size="12.00">Recovery Sequence</text>
</g>
<g id="clust3" class="cluster">
<title>cluster_fault</title>
<path fill="none" stroke="#d6f5d6" stroke-dasharray="5,2" d="M538.85,-129C538.85,-129 1389.1,-129 1389.1,-129 1395.1,-129 1401.1,-135 1401.1,-141 1401.1,-141 1401.1,-245 1401.1,-245 1401.1,-251 1395.1,-257 1389.1,-257 1389.1,-257 538.85,-257 538.85,-257 532.85,-257 526.85,-251 526.85,-245 526.85,-245 526.85,-141 526.85,-141 526.85,-135 532.85,-129 538.85,-129"/>
<text xml:space="preserve" text-anchor="middle" x="963.97" y="-241.6" font-family="Times,serif" font-size="12.00">Fault Recovery Sequence</text>
</g>
<!-- start -->
<g id="node1" class="node">
<title>start</title>
<ellipse fill="black" stroke="black" cx="1.8" cy="-376" rx="1.8" ry="1.8"/>
</g>
<!-- Idle -->
<g id="node2" class="node">
<title>Idle</title>
<path fill="none" stroke="black" d="M103.1,-394C103.1,-394 52.6,-394 52.6,-394 46.6,-394 40.6,-388 40.6,-382 40.6,-382 40.6,-370 40.6,-370 40.6,-364 46.6,-358 52.6,-358 52.6,-358 103.1,-358 103.1,-358 109.1,-358 115.1,-364 115.1,-370 115.1,-370 115.1,-382 115.1,-382 115.1,-388 109.1,-394 103.1,-394"/>
<text xml:space="preserve" text-anchor="middle" x="77.85" y="-377.75" font-family="Times,serif" font-size="10.00">Idle</text>
<text xml:space="preserve" text-anchor="middle" x="77.85" y="-366.5" font-family="Times,serif" font-size="10.00">(queue empty)</text>
</g>
<!-- start&#45;&gt;Idle -->
<g id="edge1" class="edge">
<title>start&#45;&gt;Idle</title>
<path fill="none" stroke="black" d="M4.09,-376C7.52,-376 17.43,-376 28.88,-376"/>
<polygon fill="black" stroke="black" points="28.65,-379.5 38.65,-376 28.65,-372.5 28.65,-379.5"/>
</g>
<!-- Dequeue -->
<g id="node3" class="node">
<title>Dequeue</title>
<path fill="none" stroke="black" d="M356.85,-354C356.85,-354 265.85,-354 265.85,-354 259.85,-354 253.85,-348 253.85,-342 253.85,-342 253.85,-330 253.85,-330 253.85,-324 259.85,-318 265.85,-318 265.85,-318 356.85,-318 356.85,-318 362.85,-318 368.85,-324 368.85,-330 368.85,-330 368.85,-342 368.85,-342 368.85,-348 362.85,-354 356.85,-354"/>
<text xml:space="preserve" text-anchor="middle" x="311.35" y="-337.75" font-family="Times,serif" font-size="10.00">Dequeue next command</text>
<text xml:space="preserve" text-anchor="middle" x="311.35" y="-326.5" font-family="Times,serif" font-size="10.00">(serialize requests)</text>
</g>
<!-- Idle&#45;&gt;Dequeue -->
<g id="edge2" class="edge">
<title>Idle&#45;&gt;Dequeue</title>
<path fill="none" stroke="black" d="M115.47,-371.51C146.29,-367.53 191.47,-361.24 230.6,-354 234.41,-353.29 238.32,-352.53 242.26,-351.74"/>
<polygon fill="black" stroke="black" points="242.83,-355.19 251.91,-349.73 241.41,-348.34 242.83,-355.19"/>
<text xml:space="preserve" text-anchor="middle" x="181.85" y="-372.37" font-family="Times,serif" font-size="14.00">command queued</text>
</g>
<!-- Dequeue&#45;&gt;Idle -->
<g id="edge10" class="edge">
<title>Dequeue&#45;&gt;Idle</title>
<path fill="none" stroke="black" stroke-dasharray="5,2" d="M253.71,-325.58C218.12,-321.34 171.79,-320.15 133.1,-333.5 122.8,-337.05 112.96,-343.46 104.56,-350.23"/>
<polygon fill="black" stroke="black" points="102.46,-347.42 97.2,-356.62 107.05,-352.71 102.46,-347.42"/>
<text xml:space="preserve" text-anchor="middle" x="181.85" y="-336.7" font-family="Times,serif" font-size="14.00">no command</text>
</g>
<!-- UsbSafe -->
<g id="node5" class="node">
<title>UsbSafe</title>
<path fill="none" stroke="black" d="M1703.33,-467C1703.33,-467 1603.33,-467 1603.33,-467 1597.33,-467 1591.33,-461 1591.33,-455 1591.33,-455 1591.33,-443 1591.33,-443 1591.33,-437 1597.33,-431 1603.33,-431 1603.33,-431 1703.33,-431 1703.33,-431 1709.33,-431 1715.33,-437 1715.33,-443 1715.33,-443 1715.33,-455 1715.33,-455 1715.33,-461 1709.33,-467 1703.33,-467"/>
<text xml:space="preserve" text-anchor="middle" x="1653.33" y="-450.75" font-family="Times,serif" font-size="10.00">USB disconnect safe state</text>
<text xml:space="preserve" text-anchor="middle" x="1653.33" y="-439.5" font-family="Times,serif" font-size="10.00">release straps + notify host</text>
</g>
<!-- Dequeue&#45;&gt;UsbSafe -->
<g id="edge5" class="edge">
<title>Dequeue&#45;&gt;UsbSafe</title>
<path fill="none" stroke="black" d="M325.16,-354.23C339.37,-373.06 364.02,-401.9 392.1,-418 464.53,-459.53 490.99,-463 574.47,-463 574.47,-463 574.47,-463 1345.97,-463 1426.04,-463 1517.76,-458.17 1579.81,-454.18"/>
<polygon fill="black" stroke="black" points="1579.78,-457.69 1589.53,-453.55 1579.33,-450.71 1579.78,-457.69"/>
<text xml:space="preserve" text-anchor="middle" x="956.97" y="-466.2" font-family="Times,serif" font-size="14.00">USB cable removed</text>
</g>
<!-- BrownoutHold -->
<g id="node6" class="node">
<title>BrownoutHold</title>
<path fill="none" stroke="black" d="M852.85,-301C852.85,-301 730.35,-301 730.35,-301 724.35,-301 718.35,-295 718.35,-289 718.35,-289 718.35,-277 718.35,-277 718.35,-271 724.35,-265 730.35,-265 730.35,-265 852.85,-265 852.85,-265 858.85,-265 864.85,-271 864.85,-277 864.85,-277 864.85,-289 864.85,-289 864.85,-295 858.85,-301 852.85,-301"/>
<text xml:space="preserve" text-anchor="middle" x="791.6" y="-284.75" font-family="Times,serif" font-size="10.00">Brown&#45;out hold</text>
<text xml:space="preserve" text-anchor="middle" x="791.6" y="-273.5" font-family="Times,serif" font-size="10.00">pause until VDD_3V3 ≥ 2.97 V</text>
</g>
<!-- Dequeue&#45;&gt;BrownoutHold -->
<g id="edge3" class="edge">
<title>Dequeue&#45;&gt;BrownoutHold</title>
<path fill="none" stroke="black" d="M369.22,-323.37C410.69,-314.66 468.36,-303.6 519.6,-297.5 582.06,-290.06 653.08,-286.44 706.74,-284.67"/>
<polygon fill="black" stroke="black" points="706.52,-288.18 716.4,-284.37 706.3,-281.18 706.52,-288.18"/>
<text xml:space="preserve" text-anchor="middle" x="575.47" y="-300.7" font-family="Times,serif" font-size="14.00">VDD_3V3 &lt; 2.97 V</text>
</g>
<!-- NormalPulsePwr -->
<g id="node9" class="node">
<title>NormalPulsePwr</title>
<path fill="none" stroke="black" d="M606.72,-407C606.72,-407 544.22,-407 544.22,-407 538.22,-407 532.22,-401 532.22,-395 532.22,-395 532.22,-383 532.22,-383 532.22,-377 538.22,-371 544.22,-371 544.22,-371 606.72,-371 606.72,-371 612.72,-371 618.72,-377 618.72,-383 618.72,-383 618.72,-395 618.72,-395 618.72,-401 612.72,-407 606.72,-407"/>
<text xml:space="preserve" text-anchor="middle" x="575.47" y="-390.75" font-family="Times,serif" font-size="10.00">Drive PWR* low</text>
<text xml:space="preserve" text-anchor="middle" x="575.47" y="-379.5" font-family="Times,serif" font-size="10.00">200 ms</text>
</g>
<!-- Dequeue&#45;&gt;NormalPulsePwr -->
<g id="edge7" class="edge">
<title>Dequeue&#45;&gt;NormalPulsePwr</title>
<path fill="none" stroke="black" d="M333.71,-354.38C348.89,-366.2 370.37,-380.52 392.1,-387 434.03,-399.51 483.84,-399.1 520.8,-396.07"/>
<polygon fill="black" stroke="black" points="520.69,-399.59 530.33,-395.19 520.05,-392.62 520.69,-399.59"/>
<text xml:space="preserve" text-anchor="middle" x="446.85" y="-401.04" font-family="Times,serif" font-size="14.00">Normal reboot</text>
</g>
<!-- RecoveryPreHold -->
<g id="node10" class="node">
<title>RecoveryPreHold</title>
<path fill="none" stroke="black" d="M606.72,-91C606.72,-91 544.22,-91 544.22,-91 538.22,-91 532.22,-85 532.22,-79 532.22,-79 532.22,-67 532.22,-67 532.22,-61 538.22,-55 544.22,-55 544.22,-55 606.72,-55 606.72,-55 612.72,-55 618.72,-61 618.72,-67 618.72,-67 618.72,-79 618.72,-79 618.72,-85 612.72,-91 606.72,-91"/>
<text xml:space="preserve" text-anchor="middle" x="575.47" y="-74.75" font-family="Times,serif" font-size="10.00">Assert REC* low</text>
<text xml:space="preserve" text-anchor="middle" x="575.47" y="-63.5" font-family="Times,serif" font-size="10.00">100 ms pre&#45;reset</text>
</g>
<!-- Dequeue&#45;&gt;RecoveryPreHold -->
<g id="edge8" class="edge">
<title>Dequeue&#45;&gt;RecoveryPreHold</title>
<path fill="none" stroke="black" d="M321.68,-317.57C334.32,-294.62 359.17,-256.05 392.1,-236.5 434.61,-211.27 466.35,-251.66 501.6,-217 531.31,-187.79 499.52,-161.51 519.6,-125 524.9,-115.35 532.62,-106.45 540.6,-98.83"/>
<polygon fill="black" stroke="black" points="542.68,-101.67 547.8,-92.39 538.01,-96.45 542.68,-101.67"/>
<text xml:space="preserve" text-anchor="middle" x="446.85" y="-239.7" font-family="Times,serif" font-size="14.00">Recovery now/enter</text>
</g>
<!-- FaultAssertAPO -->
<g id="node11" class="node">
<title>FaultAssertAPO</title>
<path fill="none" stroke="black" d="M604.1,-186C604.1,-186 546.85,-186 546.85,-186 540.85,-186 534.85,-180 534.85,-174 534.85,-174 534.85,-162 534.85,-162 534.85,-156 540.85,-150 546.85,-150 546.85,-150 604.1,-150 604.1,-150 610.1,-150 616.1,-156 616.1,-162 616.1,-162 616.1,-174 616.1,-174 616.1,-180 610.1,-186 604.1,-186"/>
<text xml:space="preserve" text-anchor="middle" x="575.47" y="-169.75" font-family="Times,serif" font-size="10.00">Assert APO low</text>
<text xml:space="preserve" text-anchor="middle" x="575.47" y="-158.5" font-family="Times,serif" font-size="10.00">250 ms</text>
</g>
<!-- Dequeue&#45;&gt;FaultAssertAPO -->
<g id="edge9" class="edge">
<title>Dequeue&#45;&gt;FaultAssertAPO</title>
<path fill="none" stroke="black" d="M333.62,-317.67C348.93,-305.4 370.59,-289.84 392.1,-280.5 437.76,-260.67 459.11,-282.93 501.6,-257 525.95,-242.14 545.82,-216.14 558.62,-196.07"/>
<polygon fill="black" stroke="black" points="561.47,-198.14 563.71,-187.78 555.5,-194.48 561.47,-198.14"/>
<text xml:space="preserve" text-anchor="middle" x="446.85" y="-283.7" font-family="Times,serif" font-size="14.00">Fault recover</text>
</g>
<!-- CollisionReject -->
<g id="node4" class="node">
<title>CollisionReject</title>
<path fill="none" stroke="black" stroke-dasharray="5,2" d="M362.1,-157C362.1,-157 260.6,-157 260.6,-157 254.6,-157 248.6,-151 248.6,-145 248.6,-145 248.6,-133 248.6,-133 248.6,-127 254.6,-121 260.6,-121 260.6,-121 362.1,-121 362.1,-121 368.1,-121 374.1,-127 374.1,-133 374.1,-133 374.1,-145 374.1,-145 374.1,-151 368.1,-157 362.1,-157"/>
<text xml:space="preserve" text-anchor="middle" x="311.35" y="-140.75" font-family="Times,serif" font-size="10.00">Reject overlapping request</text>
<text xml:space="preserve" text-anchor="middle" x="311.35" y="-129.5" font-family="Times,serif" font-size="10.00">log BUSY + timestamp</text>
</g>
<!-- CollisionReject&#45;&gt;NormalPulsePwr -->
<g id="edge36" class="edge">
<title>CollisionReject&#45;&gt;NormalPulsePwr</title>
<path fill="none" stroke="black" stroke-dasharray="5,2" d="M346.55,-157.46C360.39,-164.35 376.71,-171.76 392.1,-177 439.22,-193.04 468.15,-163.64 501.6,-200.5 548.65,-252.35 481.31,-298.39 519.6,-357 521,-359.14 522.59,-361.15 524.33,-363.04"/>
<polygon fill="black" stroke="black" points="521.86,-365.53 531.65,-369.58 526.53,-360.31 521.86,-365.53"/>
<text xml:space="preserve" text-anchor="middle" x="446.85" y="-203.7" font-family="Times,serif" font-size="14.00">continue sequence</text>
</g>
<!-- CollisionReject&#45;&gt;RecoveryPreHold -->
<g id="edge37" class="edge">
<title>CollisionReject&#45;&gt;RecoveryPreHold</title>
<path fill="none" stroke="black" stroke-dasharray="5,2" d="M323.81,-120.81C337.37,-101.18 361.96,-71.07 392.1,-58.5 433.06,-41.42 483.63,-47.3 521.12,-56.17"/>
<polygon fill="black" stroke="black" points="519.8,-59.45 530.35,-58.49 521.51,-52.66 519.8,-59.45"/>
<text xml:space="preserve" text-anchor="middle" x="446.85" y="-61.7" font-family="Times,serif" font-size="14.00">continue sequence</text>
</g>
<!-- CollisionReject&#45;&gt;FaultAssertAPO -->
<g id="edge38" class="edge">
<title>CollisionReject&#45;&gt;FaultAssertAPO</title>
<path fill="none" stroke="black" stroke-dasharray="5,2" d="M374.22,-125.65C411.65,-119.92 460.02,-116.72 501.6,-127.5 514.6,-130.87 527.76,-137.12 539.24,-143.72"/>
<polygon fill="black" stroke="black" points="537.2,-146.57 547.57,-148.76 540.83,-140.59 537.2,-146.57"/>
<text xml:space="preserve" text-anchor="middle" x="446.85" y="-130.7" font-family="Times,serif" font-size="14.00">continue sequence</text>
</g>
<!-- TelemetryFlush -->
<g id="node7" class="node">
<title>TelemetryFlush</title>
<path fill="none" stroke="black" d="M1953.33,-91C1953.33,-91 1849.58,-91 1849.58,-91 1843.58,-91 1837.58,-85 1837.58,-79 1837.58,-79 1837.58,-67 1837.58,-67 1837.58,-61 1843.58,-55 1849.58,-55 1849.58,-55 1953.33,-55 1953.33,-55 1959.33,-55 1965.33,-61 1965.33,-67 1965.33,-67 1965.33,-79 1965.33,-79 1965.33,-85 1959.33,-91 1953.33,-91"/>
<text xml:space="preserve" text-anchor="middle" x="1901.45" y="-74.75" font-family="Times,serif" font-size="10.00">Flush telemetry &amp; evidence</text>
<text xml:space="preserve" text-anchor="middle" x="1901.45" y="-63.5" font-family="Times,serif" font-size="10.00">(defmt + ring buffer)</text>
</g>
<!-- UsbSafe&#45;&gt;TelemetryFlush -->
<g id="edge6" class="edge">
<title>UsbSafe&#45;&gt;TelemetryFlush</title>
<path fill="none" stroke="black" d="M1684.21,-430.55C1720.98,-406.42 1783.01,-360.81 1819.58,-307 1864.02,-241.59 1886.36,-149.33 1895.4,-102.61"/>
<polygon fill="black" stroke="black" points="1898.81,-103.45 1897.19,-92.97 1891.93,-102.17 1898.81,-103.45"/>
<text xml:space="preserve" text-anchor="middle" x="1776.45" y="-398.25" font-family="Times,serif" font-size="14.00">report safe state</text>
</g>
<!-- BrownoutHold&#45;&gt;Dequeue -->
<g id="edge4" class="edge">
<title>BrownoutHold&#45;&gt;Dequeue</title>
<path fill="none" stroke="black" d="M717.97,-299.1C690.9,-304.58 659.84,-310.26 631.35,-314 545.29,-325.3 445.35,-331 380.59,-333.73"/>
<polygon fill="black" stroke="black" points="380.68,-330.23 370.83,-334.13 380.97,-337.22 380.68,-330.23"/>
<text xml:space="preserve" text-anchor="middle" x="575.47" y="-328.64" font-family="Times,serif" font-size="14.00">rails stable</text>
</g>
<!-- TelemetryFlush&#45;&gt;Idle -->
<g id="edge12" class="edge">
<title>TelemetryFlush&#45;&gt;Idle</title>
<path fill="none" stroke="black" d="M1900.98,-91.47C1901.62,-146.59 1896.68,-312.46 1819.58,-416 1802.75,-438.6 1678.57,-508 1654.33,-508 310.35,-508 310.35,-508 310.35,-508 225.87,-508 144.12,-440.84 104.19,-402.33"/>
<polygon fill="black" stroke="black" points="106.75,-399.94 97.17,-395.42 101.84,-404.93 106.75,-399.94"/>
</g>
<!-- SequenceError -->
<g id="node8" class="node">
<title>SequenceError</title>
<path fill="none" stroke="black" d="M1563.24,-72.5C1563.24,-72.5 1544.73,-84.41 1544.73,-84.41 1539.69,-87.66 1528.64,-90.9 1522.64,-90.9 1522.64,-90.9 1469.28,-90.9 1469.28,-90.9 1463.28,-90.9 1452.24,-87.66 1447.19,-84.41 1447.19,-84.41 1428.69,-72.5 1428.69,-72.5 1423.64,-69.25 1423.64,-62.75 1428.69,-59.5 1428.69,-59.5 1447.19,-47.59 1447.19,-47.59 1452.24,-44.34 1463.28,-41.1 1469.28,-41.1 1469.28,-41.1 1522.64,-41.1 1522.64,-41.1 1528.64,-41.1 1539.69,-44.34 1544.73,-47.59 1544.73,-47.59 1563.24,-59.5 1563.24,-59.5 1568.28,-62.75 1568.28,-69.25 1563.24,-72.5"/>
<text xml:space="preserve" text-anchor="middle" x="1495.96" y="-67.75" font-family="Times,serif" font-size="10.00">Surface error</text>
<text xml:space="preserve" text-anchor="middle" x="1495.96" y="-56.5" font-family="Times,serif" font-size="10.00">release straps &amp; log</text>
</g>
<!-- SequenceError&#45;&gt;TelemetryFlush -->
<g id="edge11" class="edge">
<title>SequenceError&#45;&gt;TelemetryFlush</title>
<path fill="none" stroke="black" d="M1571.91,-67.3C1644.38,-68.56 1753.56,-70.45 1825.9,-71.71"/>
<polygon fill="black" stroke="black" points="1825.61,-75.2 1835.67,-71.88 1825.73,-68.2 1825.61,-75.2"/>
</g>
<!-- NormalPulsePwr&#45;&gt;CollisionReject -->
<g id="edge33" class="edge">
<title>NormalPulsePwr&#45;&gt;CollisionReject</title>
<path fill="none" stroke="black" stroke-dasharray="5,2" d="M532.07,-372.33C485.05,-353.2 413.06,-321.8 392.1,-301 354.11,-263.31 331.33,-203.85 320.36,-168.42"/>
<polygon fill="black" stroke="black" points="323.72,-167.43 317.52,-158.84 317.01,-169.42 323.72,-167.43"/>
<text xml:space="preserve" text-anchor="middle" x="446.85" y="-362.23" font-family="Times,serif" font-size="14.00">new command</text>
</g>
<!-- NormalPulsePwr&#45;&gt;BrownoutHold -->
<g id="edge39" class="edge">
<title>NormalPulsePwr&#45;&gt;BrownoutHold</title>
<path fill="none" stroke="black" stroke-dasharray="1,5" d="M618.99,-377.91C643.49,-370.71 674.46,-360.21 700.35,-347 721.43,-336.24 743.12,-321.02 759.95,-308.12"/>
<polygon fill="black" stroke="black" points="761.85,-311.08 767.57,-302.17 757.54,-305.56 761.85,-311.08"/>
<text xml:space="preserve" text-anchor="middle" x="674.85" y="-370.93" font-family="Times,serif" font-size="14.00">VDD sag</text>
</g>
<!-- NormalCooldown -->
<g id="node12" class="node">
<title>NormalCooldown</title>
<path fill="none" stroke="black" d="M816.1,-407C816.1,-407 767.1,-407 767.1,-407 761.1,-407 755.1,-401 755.1,-395 755.1,-395 755.1,-383 755.1,-383 755.1,-377 761.1,-371 767.1,-371 767.1,-371 816.1,-371 816.1,-371 822.1,-371 828.1,-377 828.1,-383 828.1,-383 828.1,-395 828.1,-395 828.1,-401 822.1,-407 816.1,-407"/>
<text xml:space="preserve" text-anchor="middle" x="791.6" y="-385.12" font-family="Times,serif" font-size="10.00">Cooldown 1 s</text>
</g>
<!-- NormalPulsePwr&#45;&gt;NormalCooldown -->
<g id="edge13" class="edge">
<title>NormalPulsePwr&#45;&gt;NormalCooldown</title>
<path fill="none" stroke="black" d="M619.04,-389C655.07,-389 706.64,-389 743.82,-389"/>
<polygon fill="black" stroke="black" points="743.35,-392.5 753.35,-389 743.35,-385.5 743.35,-392.5"/>
</g>
<!-- RecoveryPreHold&#45;&gt;CollisionReject -->
<g id="edge34" class="edge">
<title>RecoveryPreHold&#45;&gt;CollisionReject</title>
<path fill="none" stroke="black" stroke-dasharray="5,2" d="M531.99,-75.37C494.48,-78.36 438.68,-84.98 392.1,-99.5 379.21,-103.52 365.82,-109.4 353.79,-115.4"/>
<polygon fill="black" stroke="black" points="352.22,-112.26 344.94,-119.96 355.43,-118.48 352.22,-112.26"/>
<text xml:space="preserve" text-anchor="middle" x="446.85" y="-102.7" font-family="Times,serif" font-size="14.00">new command</text>
</g>
<!-- RecoveryPreHold&#45;&gt;BrownoutHold -->
<g id="edge40" class="edge">
<title>RecoveryPreHold&#45;&gt;BrownoutHold</title>
<path fill="none" stroke="black" stroke-dasharray="1,5" d="M619.02,-73.74C646.42,-76.62 680.5,-85.15 700.35,-108.5 742.14,-157.65 681.89,-203.36 715.1,-255.57"/>
<polygon fill="black" stroke="black" points="712.19,-257.52 720.95,-263.48 717.82,-253.36 712.19,-257.52"/>
<text xml:space="preserve" text-anchor="middle" x="674.85" y="-111.7" font-family="Times,serif" font-size="14.00">VDD sag</text>
</g>
<!-- RecoveryPulseReset -->
<g id="node16" class="node">
<title>RecoveryPulseReset</title>
<path fill="none" stroke="black" d="M826.22,-91C826.22,-91 756.97,-91 756.97,-91 750.97,-91 744.97,-85 744.97,-79 744.97,-79 744.97,-67 744.97,-67 744.97,-61 750.97,-55 756.97,-55 756.97,-55 826.22,-55 826.22,-55 832.22,-55 838.22,-61 838.22,-67 838.22,-67 838.22,-79 838.22,-79 838.22,-85 832.22,-91 826.22,-91"/>
<text xml:space="preserve" text-anchor="middle" x="791.6" y="-74.75" font-family="Times,serif" font-size="10.00">Pulse RESET* low</text>
<text xml:space="preserve" text-anchor="middle" x="791.6" y="-63.5" font-family="Times,serif" font-size="10.00">20 ms</text>
</g>
<!-- RecoveryPreHold&#45;&gt;RecoveryPulseReset -->
<g id="edge18" class="edge">
<title>RecoveryPreHold&#45;&gt;RecoveryPulseReset</title>
<path fill="none" stroke="black" d="M619.04,-73C651.83,-73 697.5,-73 733.48,-73"/>
<polygon fill="black" stroke="black" points="733.27,-76.5 743.27,-73 733.27,-69.5 733.27,-76.5"/>
</g>
<!-- FaultAssertAPO&#45;&gt;CollisionReject -->
<g id="edge35" class="edge">
<title>FaultAssertAPO&#45;&gt;CollisionReject</title>
<path fill="none" stroke="black" stroke-dasharray="5,2" d="M534.4,-163.57C494.99,-159.21 433.91,-152.45 385.78,-147.12"/>
<polygon fill="black" stroke="black" points="386.3,-143.66 375.97,-146.04 385.53,-150.62 386.3,-143.66"/>
<text xml:space="preserve" text-anchor="middle" x="446.85" y="-162.63" font-family="Times,serif" font-size="14.00">new command</text>
</g>
<!-- FaultAssertAPO&#45;&gt;BrownoutHold -->
<g id="edge41" class="edge">
<title>FaultAssertAPO&#45;&gt;BrownoutHold</title>
<path fill="none" stroke="black" stroke-dasharray="1,5" d="M599.84,-186.34C625.25,-205.6 667.86,-235.91 716.31,-259.71"/>
<polygon fill="black" stroke="black" points="714.51,-262.72 725.04,-263.87 717.52,-256.41 714.51,-262.72"/>
<text xml:space="preserve" text-anchor="middle" x="674.85" y="-253.83" font-family="Times,serif" font-size="14.00">VDD sag</text>
</g>
<!-- FaultHold -->
<g id="node21" class="node">
<title>FaultHold</title>
<path fill="none" stroke="black" d="M826.22,-218C826.22,-218 756.97,-218 756.97,-218 750.97,-218 744.97,-212 744.97,-206 744.97,-206 744.97,-194 744.97,-194 744.97,-188 750.97,-182 756.97,-182 756.97,-182 826.22,-182 826.22,-182 832.22,-182 838.22,-188 838.22,-194 838.22,-194 838.22,-206 838.22,-206 838.22,-212 832.22,-218 826.22,-218"/>
<text xml:space="preserve" text-anchor="middle" x="791.6" y="-201.75" font-family="Times,serif" font-size="10.00">Hold for shutdown</text>
<text xml:space="preserve" text-anchor="middle" x="791.6" y="-190.5" font-family="Times,serif" font-size="10.00">ensure rails drop</text>
</g>
<!-- FaultAssertAPO&#45;&gt;FaultHold -->
<g id="edge25" class="edge">
<title>FaultAssertAPO&#45;&gt;FaultHold</title>
<path fill="none" stroke="black" d="M616.5,-173.98C649.52,-178.92 696.77,-185.98 733.72,-191.5"/>
<polygon fill="black" stroke="black" points="732.93,-194.92 743.33,-192.94 733.96,-188 732.93,-194.92"/>
</g>
<!-- NormalPulseReset -->
<g id="node13" class="node">
<title>NormalPulseReset</title>
<path fill="none" stroke="black" d="M992.35,-407C992.35,-407 921.6,-407 921.6,-407 915.6,-407 909.6,-401 909.6,-395 909.6,-395 909.6,-383 909.6,-383 909.6,-377 915.6,-371 921.6,-371 921.6,-371 992.35,-371 992.35,-371 998.35,-371 1004.35,-377 1004.35,-383 1004.35,-383 1004.35,-395 1004.35,-395 1004.35,-401 998.35,-407 992.35,-407"/>
<text xml:space="preserve" text-anchor="middle" x="956.97" y="-390.75" font-family="Times,serif" font-size="10.00">Drive RESET* low</text>
<text xml:space="preserve" text-anchor="middle" x="956.97" y="-379.5" font-family="Times,serif" font-size="10.00">20 ms</text>
</g>
<!-- NormalCooldown&#45;&gt;NormalPulseReset -->
<g id="edge14" class="edge">
<title>NormalCooldown&#45;&gt;NormalPulseReset</title>
<path fill="none" stroke="black" d="M828.45,-389C848.78,-389 874.71,-389 897.87,-389"/>
<polygon fill="black" stroke="black" points="897.82,-392.5 907.82,-389 897.82,-385.5 897.82,-392.5"/>
</g>
<!-- NormalRelease -->
<g id="node14" class="node">
<title>NormalRelease</title>
<path fill="none" stroke="black" d="M1152.1,-407C1152.1,-407 1061.1,-407 1061.1,-407 1055.1,-407 1049.1,-401 1049.1,-395 1049.1,-395 1049.1,-383 1049.1,-383 1049.1,-377 1055.1,-371 1061.1,-371 1061.1,-371 1152.1,-371 1152.1,-371 1158.1,-371 1164.1,-377 1164.1,-383 1164.1,-383 1164.1,-395 1164.1,-395 1164.1,-401 1158.1,-407 1152.1,-407"/>
<text xml:space="preserve" text-anchor="middle" x="1106.6" y="-390.75" font-family="Times,serif" font-size="10.00">Release PWR*/RESET*</text>
<text xml:space="preserve" text-anchor="middle" x="1106.6" y="-379.5" font-family="Times,serif" font-size="10.00">REC* stays high</text>
</g>
<!-- NormalPulseReset&#45;&gt;NormalRelease -->
<g id="edge15" class="edge">
<title>NormalPulseReset&#45;&gt;NormalRelease</title>
<path fill="none" stroke="black" d="M1004.68,-389C1015.09,-389 1026.33,-389 1037.41,-389"/>
<polygon fill="black" stroke="black" points="1037.33,-392.5 1047.33,-389 1037.33,-385.5 1037.33,-392.5"/>
</g>
<!-- NormalLog -->
<g id="node15" class="node">
<title>NormalLog</title>
<path fill="none" stroke="black" d="M1388.6,-407C1388.6,-407 1301.35,-407 1301.35,-407 1295.35,-407 1289.35,-401 1289.35,-395 1289.35,-395 1289.35,-383 1289.35,-383 1289.35,-377 1295.35,-371 1301.35,-371 1301.35,-371 1388.6,-371 1388.6,-371 1394.6,-371 1400.6,-377 1400.6,-383 1400.6,-383 1400.6,-395 1400.6,-395 1400.6,-401 1394.6,-407 1388.6,-407"/>
<text xml:space="preserve" text-anchor="middle" x="1344.97" y="-390.75" font-family="Times,serif" font-size="10.00">Stamp timing + success</text>
<text xml:space="preserve" text-anchor="middle" x="1344.97" y="-379.5" font-family="Times,serif" font-size="10.00">into telemetry</text>
</g>
<!-- NormalRelease&#45;&gt;NormalLog -->
<g id="edge16" class="edge">
<title>NormalRelease&#45;&gt;NormalLog</title>
<path fill="none" stroke="black" d="M1164.52,-389C1198.66,-389 1242.24,-389 1277.9,-389"/>
<polygon fill="black" stroke="black" points="1277.66,-392.5 1287.66,-389 1277.66,-385.5 1277.66,-392.5"/>
</g>
<!-- NormalLog&#45;&gt;TelemetryFlush -->
<g id="edge17" class="edge">
<title>NormalLog&#45;&gt;TelemetryFlush</title>
<path fill="none" stroke="black" d="M1378.18,-370.64C1473.12,-316.54 1751.86,-157.68 1858.39,-96.97"/>
<polygon fill="black" stroke="black" points="1859.88,-100.15 1866.84,-92.16 1856.42,-94.07 1859.88,-100.15"/>
</g>
<!-- RecoveryPostHold -->
<g id="node17" class="node">
<title>RecoveryPostHold</title>
<path fill="none" stroke="black" d="M985.97,-91C985.97,-91 927.97,-91 927.97,-91 921.97,-91 915.97,-85 915.97,-79 915.97,-79 915.97,-67 915.97,-67 915.97,-61 921.97,-55 927.97,-55 927.97,-55 985.97,-55 985.97,-55 991.97,-55 997.97,-61 997.97,-67 997.97,-67 997.97,-79 997.97,-79 997.97,-85 991.97,-91 985.97,-91"/>
<text xml:space="preserve" text-anchor="middle" x="956.97" y="-74.75" font-family="Times,serif" font-size="10.00">Hold REC* low</text>
<text xml:space="preserve" text-anchor="middle" x="956.97" y="-63.5" font-family="Times,serif" font-size="10.00">+500 ms</text>
</g>
<!-- RecoveryPulseReset&#45;&gt;RecoveryPostHold -->
<g id="edge19" class="edge">
<title>RecoveryPulseReset&#45;&gt;RecoveryPostHold</title>
<path fill="none" stroke="black" d="M838.54,-73C859.01,-73 883.2,-73 904.3,-73"/>
<polygon fill="black" stroke="black" points="904.14,-76.5 914.14,-73 904.14,-69.5 904.14,-76.5"/>
</g>
<!-- RecoveryWaitUart -->
<g id="node18" class="node">
<title>RecoveryWaitUart</title>
<path fill="none" stroke="black" d="M1150.22,-91C1150.22,-91 1062.97,-91 1062.97,-91 1056.97,-91 1050.97,-85 1050.97,-79 1050.97,-79 1050.97,-67 1050.97,-67 1050.97,-61 1056.97,-55 1062.97,-55 1062.97,-55 1150.22,-55 1150.22,-55 1156.22,-55 1162.22,-61 1162.22,-67 1162.22,-67 1162.22,-79 1162.22,-79 1162.22,-85 1156.22,-91 1150.22,-91"/>
<text xml:space="preserve" text-anchor="middle" x="1106.6" y="-74.75" font-family="Times,serif" font-size="10.00">Wait for UART activity</text>
<text xml:space="preserve" text-anchor="middle" x="1106.6" y="-63.5" font-family="Times,serif" font-size="10.00">(bridge CDC1)</text>
</g>
<!-- RecoveryPostHold&#45;&gt;RecoveryWaitUart -->
<g id="edge20" class="edge">
<title>RecoveryPostHold&#45;&gt;RecoveryWaitUart</title>
<path fill="none" stroke="black" d="M998.31,-73C1011.05,-73 1025.46,-73 1039.5,-73"/>
<polygon fill="black" stroke="black" points="1039.13,-76.5 1049.13,-73 1039.13,-69.5 1039.13,-76.5"/>
</g>
<!-- RecoveryWaitUart&#45;&gt;SequenceError -->
<g id="edge22" class="edge">
<title>RecoveryWaitUart&#45;&gt;SequenceError</title>
<path fill="none" stroke="black" d="M1162.69,-72C1226.76,-70.85 1333.33,-68.92 1408.47,-67.56"/>
<polygon fill="black" stroke="black" points="1408.34,-71.07 1418.27,-67.39 1408.21,-64.07 1408.34,-71.07"/>
<text xml:space="preserve" text-anchor="middle" x="1226.72" y="-74.81" font-family="Times,serif" font-size="14.00">timeout</text>
</g>
<!-- RecoveryRelease -->
<g id="node19" class="node">
<title>RecoveryRelease</title>
<path fill="none" stroke="black" d="M1370.22,-53C1370.22,-53 1319.72,-53 1319.72,-53 1313.72,-53 1307.72,-47 1307.72,-41 1307.72,-41 1307.72,-29 1307.72,-29 1307.72,-23 1313.72,-17 1319.72,-17 1319.72,-17 1370.22,-17 1370.22,-17 1376.22,-17 1382.22,-23 1382.22,-29 1382.22,-29 1382.22,-41 1382.22,-41 1382.22,-47 1376.22,-53 1370.22,-53"/>
<text xml:space="preserve" text-anchor="middle" x="1344.97" y="-36.75" font-family="Times,serif" font-size="10.00">Release REC*</text>
<text xml:space="preserve" text-anchor="middle" x="1344.97" y="-25.5" font-family="Times,serif" font-size="10.00">after activity</text>
</g>
<!-- RecoveryWaitUart&#45;&gt;RecoveryRelease -->
<g id="edge21" class="edge">
<title>RecoveryWaitUart&#45;&gt;RecoveryRelease</title>
<path fill="none" stroke="black" d="M1136.47,-54.53C1149.81,-47.06 1166.19,-39.31 1182.1,-35.5 1219.59,-26.54 1263.37,-27.03 1295.95,-29.43"/>
<polygon fill="black" stroke="black" points="1295.64,-32.91 1305.9,-30.26 1296.22,-25.94 1295.64,-32.91"/>
<text xml:space="preserve" text-anchor="middle" x="1226.72" y="-38.7" font-family="Times,serif" font-size="14.00">activity detected</text>
</g>
<!-- RecoveryLog -->
<g id="node20" class="node">
<title>RecoveryLog</title>
<path fill="none" stroke="black" d="M1684.95,-54C1684.95,-54 1621.7,-54 1621.7,-54 1615.7,-54 1609.7,-48 1609.7,-42 1609.7,-42 1609.7,-30 1609.7,-30 1609.7,-24 1615.7,-18 1621.7,-18 1621.7,-18 1684.95,-18 1684.95,-18 1690.95,-18 1696.95,-24 1696.95,-30 1696.95,-30 1696.95,-42 1696.95,-42 1696.95,-48 1690.95,-54 1684.95,-54"/>
<text xml:space="preserve" text-anchor="middle" x="1653.33" y="-37.75" font-family="Times,serif" font-size="10.00">Log REC timings</text>
<text xml:space="preserve" text-anchor="middle" x="1653.33" y="-26.5" font-family="Times,serif" font-size="10.00">+ host detection</text>
</g>
<!-- RecoveryRelease&#45;&gt;RecoveryLog -->
<g id="edge23" class="edge">
<title>RecoveryRelease&#45;&gt;RecoveryLog</title>
<path fill="none" stroke="black" d="M1382.62,-35.12C1436.04,-35.29 1535.65,-35.62 1597.73,-35.82"/>
<polygon fill="black" stroke="black" points="1597.71,-39.32 1607.72,-35.85 1597.73,-32.32 1597.71,-39.32"/>
</g>
<!-- RecoveryLog&#45;&gt;TelemetryFlush -->
<g id="edge24" class="edge">
<title>RecoveryLog&#45;&gt;TelemetryFlush</title>
<path fill="none" stroke="black" d="M1697.2,-42.44C1732.65,-47.77 1783.83,-55.47 1825.96,-61.8"/>
<polygon fill="black" stroke="black" points="1825.39,-65.26 1835.8,-63.28 1826.43,-58.33 1825.39,-65.26"/>
</g>
<!-- FaultNormal -->
<g id="node22" class="node">
<title>FaultNormal</title>
<path fill="none" stroke="black" d="M996.85,-226C996.85,-226 917.1,-226 917.1,-226 911.1,-226 905.1,-220 905.1,-214 905.1,-214 905.1,-202 905.1,-202 905.1,-196 911.1,-190 917.1,-190 917.1,-190 996.85,-190 996.85,-190 1002.85,-190 1008.85,-196 1008.85,-202 1008.85,-202 1008.85,-214 1008.85,-214 1008.85,-220 1002.85,-226 996.85,-226"/>
<text xml:space="preserve" text-anchor="middle" x="956.97" y="-209.75" font-family="Times,serif" font-size="10.00">Invoke normal reboot</text>
<text xml:space="preserve" text-anchor="middle" x="956.97" y="-198.5" font-family="Times,serif" font-size="10.00">(timing reuse)</text>
</g>
<!-- FaultHold&#45;&gt;FaultNormal -->
<g id="edge26" class="edge">
<title>FaultHold&#45;&gt;FaultNormal</title>
<path fill="none" stroke="black" d="M838.54,-202.25C855.5,-203.08 875.02,-204.04 893.21,-204.93"/>
<polygon fill="black" stroke="black" points="892.96,-208.42 903.12,-205.41 893.31,-201.43 892.96,-208.42"/>
</g>
<!-- FaultVerify -->
<g id="node23" class="node">
<title>FaultVerify</title>
<path fill="none" stroke="black" d="M1140.47,-226C1140.47,-226 1072.72,-226 1072.72,-226 1066.72,-226 1060.72,-220 1060.72,-214 1060.72,-214 1060.72,-202 1060.72,-202 1060.72,-196 1066.72,-190 1072.72,-190 1072.72,-190 1140.47,-190 1140.47,-190 1146.47,-190 1152.47,-196 1152.47,-202 1152.47,-202 1152.47,-214 1152.47,-214 1152.47,-220 1146.47,-226 1140.47,-226"/>
<text xml:space="preserve" text-anchor="middle" x="1106.6" y="-209.75" font-family="Times,serif" font-size="10.00">Verify boot banner</text>
<text xml:space="preserve" text-anchor="middle" x="1106.6" y="-198.5" font-family="Times,serif" font-size="10.00">or recovery status</text>
</g>
<!-- FaultNormal&#45;&gt;FaultVerify -->
<g id="edge27" class="edge">
<title>FaultNormal&#45;&gt;FaultVerify</title>
<path fill="none" stroke="black" d="M1009.19,-208C1022.07,-208 1035.97,-208 1049.1,-208"/>
<polygon fill="black" stroke="black" points="1048.87,-211.5 1058.87,-208 1048.87,-204.5 1048.87,-211.5"/>
</g>
<!-- FaultLog -->
<g id="node24" class="node">
<title>FaultLog</title>
<path fill="none" stroke="black" d="M1381.1,-227C1381.1,-227 1308.85,-227 1308.85,-227 1302.85,-227 1296.85,-221 1296.85,-215 1296.85,-215 1296.85,-203 1296.85,-203 1296.85,-197 1302.85,-191 1308.85,-191 1308.85,-191 1381.1,-191 1381.1,-191 1387.1,-191 1393.1,-197 1393.1,-203 1393.1,-203 1393.1,-215 1393.1,-215 1393.1,-221 1387.1,-227 1381.1,-227"/>
<text xml:space="preserve" text-anchor="middle" x="1344.97" y="-205.12" font-family="Times,serif" font-size="10.00">Log reason + retries</text>
</g>
<!-- FaultVerify&#45;&gt;FaultLog -->
<g id="edge28" class="edge">
<title>FaultVerify&#45;&gt;FaultLog</title>
<path fill="none" stroke="black" d="M1152.9,-208.19C1190.43,-208.35 1244.07,-208.58 1284.96,-208.75"/>
<polygon fill="black" stroke="black" points="1284.87,-212.25 1294.89,-208.79 1284.9,-205.25 1284.87,-212.25"/>
<text xml:space="preserve" text-anchor="middle" x="1226.72" y="-211.88" font-family="Times,serif" font-size="14.00">boot observed</text>
</g>
<!-- FaultRetry -->
<g id="node25" class="node">
<title>FaultRetry</title>
<path fill="none" stroke="black" d="M1380.35,-173C1380.35,-173 1309.6,-173 1309.6,-173 1303.6,-173 1297.6,-167 1297.6,-161 1297.6,-161 1297.6,-149 1297.6,-149 1297.6,-143 1303.6,-137 1309.6,-137 1309.6,-137 1380.35,-137 1380.35,-137 1386.35,-137 1392.35,-143 1392.35,-149 1392.35,-149 1392.35,-161 1392.35,-161 1392.35,-167 1386.35,-173 1380.35,-173"/>
<text xml:space="preserve" text-anchor="middle" x="1344.97" y="-156.75" font-family="Times,serif" font-size="10.00">Retry bookkeeping</text>
<text xml:space="preserve" text-anchor="middle" x="1344.97" y="-145.5" font-family="Times,serif" font-size="10.00">increment attempts</text>
</g>
<!-- FaultVerify&#45;&gt;FaultRetry -->
<g id="edge30" class="edge">
<title>FaultVerify&#45;&gt;FaultRetry</title>
<path fill="none" stroke="black" d="M1152.78,-195.02C1162.42,-192.4 1172.57,-189.76 1182.1,-187.5 1216.5,-179.32 1255.33,-171.48 1286.34,-165.55"/>
<polygon fill="black" stroke="black" points="1286.73,-169.04 1295.9,-163.74 1285.42,-162.16 1286.73,-169.04"/>
<text xml:space="preserve" text-anchor="middle" x="1226.72" y="-190.7" font-family="Times,serif" font-size="14.00">no boot</text>
</g>
<!-- FaultLog&#45;&gt;TelemetryFlush -->
<g id="edge29" class="edge">
<title>FaultLog&#45;&gt;TelemetryFlush</title>
<path fill="none" stroke="black" d="M1393.25,-197.4C1489.91,-173.7 1710.79,-119.52 1826.56,-91.12"/>
<polygon fill="black" stroke="black" points="1827.08,-94.6 1835.96,-88.82 1825.41,-87.8 1827.08,-94.6"/>
</g>
<!-- FaultRetry&#45;&gt;SequenceError -->
<g id="edge32" class="edge">
<title>FaultRetry&#45;&gt;SequenceError</title>
<path fill="none" stroke="black" d="M1386.87,-136.52C1394.21,-132.89 1401.71,-128.97 1408.6,-125 1422.78,-116.83 1437.68,-107.09 1451.03,-97.92"/>
<polygon fill="black" stroke="black" points="1453,-100.81 1459.21,-92.22 1449,-95.06 1453,-100.81"/>
</g>
<!-- FaultRetry&#45;&gt;FaultAssertAPO -->
<g id="edge31" class="edge">
<title>FaultRetry&#45;&gt;FaultAssertAPO</title>
<path fill="none" stroke="black" d="M1297.46,-155.79C1162.07,-158.08 768.86,-164.74 627.69,-167.13"/>
<polygon fill="black" stroke="black" points="627.84,-163.63 617.9,-167.3 627.96,-170.63 627.84,-163.63"/>
<text xml:space="preserve" text-anchor="middle" x="956.97" y="-165.69" font-family="Times,serif" font-size="14.00">attempts &lt; 3</text>
</g>
</g>
</svg>
